<?xml version="1.0" encoding="iso-8859-1"?>
<!-- Generator: Adobe Illustrator 19.0.0, SVG Export Plug-In . SVG Version: 6.00 Build 0)  -->
<svg version="1.1" id="Capa_1" xmlns="http://www.w3.org/2000/svg" xmlns:xlink="http://www.w3.org/1999/xlink" x="0px" y="0px"
	 viewBox="0 0 512 512" style="enable-background:new 0 0 512 512;" xml:space="preserve">
<path style="fill:#F0EFEB;" d="M512,256c0,141.385-114.615,256-256,256c-54.774,0-105.524-17.199-147.153-46.498
	c-8.861-6.228-17.304-13.009-25.276-20.292c-23.489-21.4-42.966-47.125-57.198-75.901c-8.955-18.108-15.82-37.439-20.302-57.657
	C2.09,293.731,0,275.111,0,256s2.09-37.731,6.071-55.651c4.483-20.219,11.348-39.549,20.302-57.657
	C40.605,113.915,60.082,88.2,83.56,66.8c7.983-7.293,16.426-14.075,25.287-20.302C150.476,17.199,201.226,0,256,0
	C397.385,0,512,114.615,512,256z"/>
<path style="fill:#353535;" d="M430.404,107.865c-37.909-37.919-90.29-61.367-148.135-61.367H6.071v265.153
	c4.483,20.219,11.348,39.549,20.302,57.657V66.8h255.895c25.548,0,50.322,4.995,73.634,14.858
	c22.528,9.529,42.768,23.176,60.155,40.552c17.377,17.387,31.023,37.616,40.552,60.144c9.864,23.322,14.858,48.097,14.858,73.644
	c0,25.548-4.995,50.333-14.858,73.644c-9.529,22.528-23.176,42.757-40.552,60.144c-17.387,17.387-37.627,31.023-60.155,40.552
	c-23.312,9.864-48.086,14.869-73.634,14.869H83.571c7.973,7.283,16.415,14.064,25.276,20.292h173.422
	c115.702,0,209.502-93.8,209.502-209.502C491.771,198.144,468.323,145.774,430.404,107.865z"/>
<path style="fill:#D70072;" d="M336.57,196.195l-7.561,26.097h15.129L336.57,196.195z M336.57,196.195l-7.561,26.097h15.129
	L336.57,196.195z M388.104,259.988V174.81h21.022v64.156h32.455c-3.813-36.355-19.827-70.042-46.032-96.248
	c-30.258-30.258-70.491-46.924-113.284-46.924H167.728v79.016c22.835,0,52.919-1.848,52.919,42.582
	c0,44.437-30.085,42.582-52.919,42.582v156.235h114.538c42.792,0,83.025-16.666,113.284-46.924
	c29.316-29.316,45.873-67.998,46.873-109.296L388.104,259.988L388.104,259.988z M285.165,195.833h-31.171v9.424h27.909v21.022
	h-27.909v12.686h31.171v21.022H232.97v-85.178h52.195V195.833L285.165,195.833z M355.171,260.35l-4.944-17.036h-27.315
	l-4.937,17.036h-23.023l26.46-85.903h30.317l26.46,85.903H355.171z M329.009,222.292h15.129l-7.568-26.097L329.009,222.292z
	 M336.57,196.195l-7.561,26.097h15.129L336.57,196.195z M336.57,196.195l-7.561,26.097h15.129L336.57,196.195z M194.225,198.71
	c-0.529-0.319-1.138-0.609-1.791-0.863c-1.863-0.718-3.857-1.029-5.85-1.029h-18.855v41.147h18.855c1.994,0,3.987-0.305,5.85-1.022
	c0.659-0.261,1.261-0.543,1.798-0.869c4.459-2.69,5.394-11.642,5.394-18.682C199.625,210.36,198.689,201.407,194.225,198.71z"/>
<g>
	<circle style="fill:#353535;" cx="95.23" cy="217.58" r="45.67"/>
	<rect x="57.898" y="282.1" style="fill:#353535;" width="74.67" height="131.94"/>
</g>
<g>
</g>
<g>
</g>
<g>
</g>
<g>
</g>
<g>
</g>
<g>
</g>
<g>
</g>
<g>
</g>
<g>
</g>
<g>
</g>
<g>
</g>
<g>
</g>
<g>
</g>
<g>
</g>
<g>
</g>
</svg>
